<?xml version="1.0" standalone="no"?>
<!DOCTYPE svg PUBLIC "-//W3C//DTD SVG 20010904//EN"
 "http://www.w3.org/TR/2001/REC-SVG-20010904/DTD/svg10.dtd">
<svg version="1.0" xmlns="http://www.w3.org/2000/svg"
 width="344.000000pt" height="298.000000pt" viewBox="0 0 344.000000 298.000000"
 preserveAspectRatio="xMidYMid meet">

<g transform="translate(0.000000,298.000000) scale(0.100000,-0.100000)"
fill="#000000" stroke="none">
<path d="M1728 2677 c61 -5 112 -13 112 -18 0 -5 -4 -9 -10 -9 -23 0 -89 -74
-110 -122 -44 -103 -7 -269 68 -301 15 -6 28 -12 30 -13 2 -1 -1 -12 -8 -23
-9 -18 -14 -19 -32 -10 -23 12 -38 -1 -38 -33 0 -9 -15 -26 -34 -37 -49 -31
-148 -140 -185 -203 -69 -121 -115 -285 -131 -468 l-10 -115 42 -42 42 -43
-109 2 c-61 0 -113 3 -116 4 -4 2 0 34 8 71 25 120 52 315 59 429 l7 111 -63
6 c-35 4 -107 7 -161 7 l-97 0 -6 -27 c-3 -16 -12 -72 -20 -127 -8 -54 -18
-101 -21 -105 -4 -3 -4 54 0 127 l8 132 -81 0 c-71 0 -80 -2 -77 -17 7 -34 14
-305 8 -299 -3 3 -18 74 -32 158 l-26 152 -50 -2 c-28 -2 -79 -7 -115 -12 -36
-5 -130 -10 -210 -11 l-145 -2 94 -9 c52 -5 96 -10 98 -11 1 -2 7 -48 13 -103
14 -125 45 -309 72 -426 l20 -90 184 3 c101 2 184 3 184 1 0 -1 -11 -7 -24
-12 -18 -6 -22 -14 -19 -32 4 -22 9 -23 82 -24 156 -3 310 -74 382 -176 22
-30 20 -29 -31 11 -30 24 -80 56 -112 72 -105 53 -148 59 -418 58 -221 -2
-234 -3 -131 -10 153 -11 154 -11 101 -38 -109 -57 -212 -181 -263 -317 -42
-112 -46 -104 68 -136 140 -40 324 -75 457 -89 101 -10 180 -26 138 -28 -8 -1
-23 -15 -32 -31 -25 -44 -74 -70 -134 -70 -60 0 -107 27 -142 82 -22 33 -29
36 -100 47 -43 7 -92 16 -111 21 l-33 9 6 -52 c16 -120 100 -233 215 -290 61
-30 73 -32 166 -32 87 0 107 3 157 27 80 37 142 98 183 181 19 38 35 78 35 88
0 23 32 25 50 4 11 -13 75 -15 467 -15 l454 0 10 29 c7 21 20 31 51 40 23 7
58 24 80 37 50 32 49 14 -3 -28 -36 -29 -40 -36 -35 -66 16 -103 106 -216 211
-268 54 -26 70 -29 160 -29 88 0 107 3 158 27 105 49 172 122 206 225 26 76
27 178 3 248 -16 46 -20 50 -57 57 -22 4 -85 7 -140 7 -57 1 -95 5 -90 10 14
12 154 31 235 31 39 0 70 4 70 8 0 20 -75 131 -118 175 -154 157 -430 149
-593 -16 l-52 -52 21 40 c23 45 93 115 141 139 27 14 30 21 25 44 -3 15 -14
61 -24 102 -10 41 -21 88 -24 103 l-7 28 38 -25 c64 -41 80 -42 103 -4 53 86
79 223 56 296 -14 43 -31 25 -27 -29 1 -27 -1 -67 -5 -87 -7 -33 -9 -29 -14
40 -3 43 -9 80 -12 84 -11 10 -73 -15 -117 -47 -36 -26 -41 -34 -42 -72 l-1
-42 -13 40 c-8 22 -14 64 -14 92 -1 48 -4 54 -31 68 -28 15 -33 14 -68 -6
l-39 -22 -93 37 c-51 20 -99 35 -107 32 -10 -4 -12 1 -7 19 5 22 1 27 -31 40
-20 9 -44 13 -54 10 -33 -10 -50 19 -84 145 -19 69 -42 140 -51 158 -17 33
-17 34 8 67 25 32 27 33 85 28 l60 -6 36 57 c20 32 43 60 51 63 10 4 12 15 8
42 -7 43 9 91 31 91 8 0 15 4 15 9 0 5 8 12 18 15 9 2 -19 2 -63 -1 -75 -5
-82 -7 -117 -41 -41 -39 -46 -37 -24 6 24 46 48 60 121 72 38 6 71 13 74 15
10 11 -36 102 -69 135 -62 62 -104 70 -334 68 l-201 -1 113 -10z m92 -898 c0
-23 90 -149 107 -149 9 0 25 -8 35 -17 14 -13 40 -18 96 -20 76 -2 253 -32
302 -51 l25 -10 -28 -13 c-21 -10 -27 -18 -23 -33 17 -67 36 -276 36 -389 l0
-132 -37 -65 c-44 -76 -167 -204 -237 -249 -29 -18 -63 -31 -82 -31 -31 0 -32
1 -21 29 15 42 -1 57 -69 64 -57 6 -100 27 -55 27 36 0 173 161 271 319 63
102 150 277 150 303 0 58 -366 143 -529 123 -65 -8 -62 11 4 20 41 7 44 9 50
44 3 20 14 51 24 69 17 32 17 35 -5 80 -29 59 -42 108 -25 98 6 -4 11 -12 11
-17z m106 -597 c-3 -5 -55 -80 -116 -168 -129 -183 -144 -209 -136 -236 3 -12
-4 -34 -17 -52 -12 -17 -23 -33 -24 -35 -4 -6 -60 20 -108 50 -29 18 -45 36
-45 48 0 34 39 126 80 189 l38 60 -62 11 c-35 6 -85 11 -112 11 -35 0 -45 3
-34 10 8 5 77 10 153 10 159 0 186 9 218 73 l19 37 76 0 c41 0 73 -4 70 -8z
m915 -488 c124 -50 135 -213 19 -292 -29 -20 -45 -23 -92 -20 -172 12 -213
227 -58 306 53 26 76 27 131 6z"/>
</g>
</svg>
